<svg viewBox="0 0 150.1 150.1" version="1.1" xmlns="http://www.w3.org/2000/svg" id="ICONS">
  
  <defs>
    <style>
      .st0, .st1, .st2, .st3 {
        fill: none;
      }

      .st1 {
        stroke-miterlimit: 10;
      }

      .st1, .st2, .st3 {
        stroke: #221f20;
        stroke-linecap: round;
        stroke-width: .8px;
      }

      .st2, .st3 {
        stroke-linejoin: round;
      }

      .st4 {
        fill: #221f20;
      }

      .st5 {
        fill: #000201;
      }

      .st3 {
        stroke-dasharray: 0 0 0 0 0 3;
      }
    </style>
  </defs>
  <rect height="149.6" width="149.6" y=".2" x=".2" class="st0"></rect>
  <rect transform="translate(150.1 0) rotate(90)" height="129.6" width="129.6" y="10.2" x="10.2" class="st0"></rect>
  <g>
    <g>
      <line y2="11.8" x2="118.5" y1="11.8" x1="116" class="st1"></line>
      <line y2="11.8" x2="113.6" y1="11.8" x1="111.2" class="st1"></line>
    </g>
    <g>
      <line y2="8.2" x2="114.8" y1="10.6" x1="114.8" class="st1"></line>
      <line y2="12.9" x2="114.8" y1="15.4" x1="114.8" class="st1"></line>
    </g>
  </g>
  <path d="M112.5,139.3l6.3-.7c6.1-.7,6.9-5.8,6.2-12l-.6-4.9" class="st3"></path>
  <circle r=".4" cy="25.9" cx="45.5" class="st5"></circle>
  <path d="M100.2,10.3c2.5,1.8,2,5,2,5,12.1,17.3,12.5,65.6,12.5,65.6l1.8,46.9c.1,1.5-.9,2.8-2.3,3l-16.3,2.6-18.8-77.7-18.9,78.6-17.7-3.7c-1.8-.4-3.1-2.1-2.9-4l8.1-85.5c1.4-14.2,9.7-25.6,9.7-25.6l1.3-4.8,10.2,1.5,14.1-.3,17.3-1.6M100.2,8.3c0,0-.1,0-.2,0l-17.2,1.6-13.9.3-10.1-1.5c0,0-.2,0-.3,0-.9,0-1.7.6-1.9,1.5l-1.2,4.4c-1.4,2-8.5,12.8-9.8,26.3l-8.1,85.5c-.3,2.9,1.7,5.5,4.5,6.1l17.7,3.7c.1,0,.3,0,.4,0,.9,0,1.7-.6,1.9-1.5l17-70.5,16.8,69.7c.2.9,1,1.5,1.9,1.5s.2,0,.3,0l16.3-2.6c2.5-.4,4.2-2.6,4-5.1l-1.8-46.9c0-2.3-.6-48.1-12.5-66.1,0-1.7-.6-4.4-2.9-6.1-.3-.2-.8-.4-1.2-.4h0Z" class="st4"></path>
  <g>
    <path d="M58.6,10.8s13.6,3.4,19.9,3.2c6.3-.2,21.7-3.6,21.7-3.6" class="st2"></path>
    <path d="M57.4,15.6s18.6,3.4,21.9,3.3c3.3-.1,21.5-1.9,23-3.5" class="st2"></path>
    <polyline points="79.3 18.9 79.2 43 82.3 68.9" class="st2"></polyline>
    <line y2="32.1" x2="68.2" y1="17.6" x1="69.8" class="st2"></line>
    <line y2="31.6" x2="90" y1="18" x1="89.2" class="st2"></line>
    <circle r="1.1" cy="16.5" cx="80.4" class="st2"></circle>
    <rect transform="translate(-1.2 9.8) rotate(-6.3)" height="5.1" width="1.3" y="12.9" x="87.4" class="st2"></rect>
    <rect transform="translate(3.3 -10.7) rotate(9)" height="4.3" width="1.3" y="13.3" x="69.1" class="st2"></rect>
    <line y2="43" x2="79.2" y1="70.3" x1="75.6" class="st2"></line>
    <path d="M96.4,17.1s6.1,14.4,12.6,14.5" class="st2"></path>
    <path d="M61.9,16.5s-5.9,12.2-11.3,12.3" class="st2"></path>
  </g>
  <path d="M63.1,7.8l-7.1-1.4c-.7-.1-1.4.2-1.6.9l-2,5.4c-.2.6-.6,1.2-1,1.6-1.2,1.2-3.7,4.2-4.9,9.6" class="st1"></path>
</svg>