<?xml version='1.0' encoding='UTF-8'?>
<svg width="27mm" height="27mm" version="1.1" viewBox="0 0 27 27" xmlns="http://www.w3.org/2000/svg"><path d="M 16 22 L 16 23 L 17 23 L 17 22 z M 20 1 L 20 2 L 21 2 L 21 1 z M 20 10 L 20 11 L 21 11 L 21 10 z M 1 6 L 1 7 L 2 7 L 2 6 z M 12 6 L 12 7 L 13 7 L 13 6 z M 1 15 L 1 16 L 2 16 L 2 15 z M 1 24 L 1 25 L 2 25 L 2 24 z M 5 3 L 5 4 L 6 4 L 6 3 z M 4 7 L 4 8 L 5 8 L 5 7 z M 4 16 L 4 17 L 5 17 L 5 16 z M 15 16 L 15 17 L 16 17 L 16 16 z M 4 25 L 4 26 L 5 26 L 5 25 z M 16 8 L 16 9 L 17 9 L 17 8 z M 19 4 L 19 5 L 20 5 L 20 4 z M 8 13 L 8 14 L 9 14 L 9 13 z M 19 13 L 19 14 L 20 14 L 20 13 z M 19 22 L 19 23 L 20 23 L 20 22 z M 1 1 L 1 2 L 2 2 L 2 1 z M 1 10 L 1 11 L 2 11 L 2 10 z M 11 23 L 11 24 L 12 24 L 12 23 z M 15 2 L 15 3 L 16 3 L 16 2 z M 4 11 L 4 12 L 5 12 L 5 11 z M 15 20 L 15 21 L 16 21 L 16 20 z M 19 17 L 19 18 L 20 18 L 20 17 z M 12 5 L 12 6 L 13 6 L 13 5 z M 11 9 L 11 10 L 12 10 L 12 9 z M 11 18 L 11 19 L 12 19 L 12 18 z M 3 14 L 3 15 L 4 15 L 4 14 z M 3 23 L 3 24 L 4 24 L 4 23 z M 23 1 L 23 2 L 24 2 L 24 1 z M 23 10 L 23 11 L 24 11 L 24 10 z M 15 6 L 15 7 L 16 7 L 16 6 z M 15 15 L 15 16 L 16 16 L 16 15 z M 19 3 L 19 4 L 20 4 L 20 3 z M 19 12 L 19 13 L 20 13 L 20 12 z M 7 25 L 7 26 L 8 26 L 8 25 z M 22 23 L 22 24 L 23 24 L 23 23 z M 11 4 L 11 5 L 12 5 L 12 4 z M 11 22 L 11 23 L 12 23 L 12 22 z M 23 5 L 23 6 L 24 6 L 24 5 z M 4 1 L 4 2 L 5 2 L 5 1 z M 15 1 L 15 2 L 16 2 L 16 1 z M 4 10 L 4 11 L 5 11 L 5 10 z M 15 10 L 15 11 L 16 11 L 16 10 z M 4 19 L 4 20 L 5 20 L 5 19 z M 18 21 L 18 22 L 19 22 L 19 21 z M 7 11 L 7 12 L 8 12 L 8 11 z M 22 9 L 22 10 L 23 10 L 23 9 z M 7 20 L 7 21 L 8 21 L 8 20 z M 3 4 L 3 5 L 4 5 L 4 4 z M 11 17 L 11 18 L 12 18 L 12 17 z M 3 22 L 3 23 L 4 23 L 4 22 z M 23 9 L 23 10 L 24 10 L 24 9 z M 4 5 L 4 6 L 5 6 L 5 5 z M 18 16 L 18 17 L 19 17 L 19 16 z M 10 12 L 10 13 L 11 13 L 11 12 z M 18 25 L 18 26 L 19 26 L 19 25 z M 7 6 L 7 7 L 8 7 L 8 6 z M 22 4 L 22 5 L 23 5 L 23 4 z M 7 15 L 7 16 L 8 16 L 8 15 z M 7 24 L 7 25 L 8 25 L 8 24 z M 14 14 L 14 15 L 15 15 L 15 14 z M 14 23 L 14 24 L 15 24 L 15 23 z M 25 23 L 25 24 L 26 24 L 26 23 z M 17 19 L 17 20 L 18 20 L 18 19 z M 10 16 L 10 17 L 11 17 L 11 16 z M 7 1 L 7 2 L 8 2 L 8 1 z M 7 19 L 7 20 L 8 20 L 8 19 z M 21 21 L 21 22 L 22 22 L 22 21 z M 11 7 L 11 8 L 12 8 L 12 7 z M 3 3 L 3 4 L 4 4 L 4 3 z M 3 12 L 3 13 L 4 13 L 4 12 z M 14 9 L 14 10 L 15 10 L 15 9 z M 14 18 L 14 19 L 15 19 L 15 18 z M 17 14 L 17 15 L 18 15 L 18 14 z M 2 25 L 2 26 L 3 26 L 3 25 z M 10 2 L 10 3 L 11 3 L 11 2 z M 6 13 L 6 14 L 7 14 L 7 13 z M 18 15 L 18 16 L 19 16 L 19 15 z M 18 24 L 18 25 L 19 25 L 19 24 z M 7 5 L 7 6 L 8 6 L 8 5 z M 22 3 L 22 4 L 23 4 L 23 3 z M 24 21 L 24 22 L 25 22 L 25 21 z M 14 4 L 14 5 L 15 5 L 15 4 z M 25 4 L 25 5 L 26 5 L 26 4 z M 25 13 L 25 14 L 26 14 L 26 13 z M 14 22 L 14 23 L 15 23 L 15 22 z M 25 22 L 25 23 L 26 23 L 26 22 z M 17 18 L 17 19 L 18 19 L 18 18 z M 6 17 L 6 18 L 7 18 L 7 17 z M 21 11 L 21 12 L 22 12 L 22 11 z M 13 7 L 13 8 L 14 8 L 14 7 z M 24 7 L 24 8 L 25 8 L 25 7 z M 21 20 L 21 21 L 22 21 L 22 20 z M 13 16 L 13 17 L 14 17 L 14 16 z M 13 25 L 13 26 L 14 26 L 14 25 z M 5 21 L 5 22 L 6 22 L 6 21 z M 17 4 L 17 5 L 18 5 L 18 4 z M 14 17 L 14 18 L 15 18 L 15 17 z M 17 13 L 17 14 L 18 14 L 18 13 z M 17 22 L 17 23 L 18 23 L 18 22 z M 10 1 L 10 2 L 11 2 L 11 1 z M 20 14 L 20 15 L 21 15 L 21 14 z M 1 19 L 1 20 L 2 20 L 2 19 z M 21 15 L 21 16 L 22 16 L 22 15 z M 24 11 L 24 12 L 25 12 L 25 11 z M 21 24 L 21 25 L 22 25 L 22 24 z M 5 7 L 5 8 L 6 8 L 6 7 z M 5 16 L 5 17 L 6 17 L 6 16 z M 5 25 L 5 26 L 6 26 L 6 25 z M 2 1 L 2 2 L 3 2 L 3 1 z M 25 3 L 25 4 L 26 4 L 26 3 z M 2 10 L 2 11 L 3 11 L 3 10 z M 25 12 L 25 13 L 26 13 L 26 12 z M 17 8 L 17 9 L 18 9 L 18 8 z M 2 19 L 2 20 L 3 20 L 3 19 z M 17 17 L 17 18 L 18 18 L 18 17 z M 16 21 L 16 22 L 17 22 L 17 21 z M 6 7 L 6 8 L 7 8 L 7 7 z M 9 9 L 9 10 L 10 10 L 10 9 z M 1 5 L 1 6 L 2 6 L 2 5 z M 9 18 L 9 19 L 10 19 L 10 18 z M 1 14 L 1 15 L 2 15 L 2 14 z M 1 23 L 1 24 L 2 24 L 2 23 z M 21 1 L 21 2 L 22 2 L 22 1 z M 21 10 L 21 11 L 22 11 L 22 10 z M 13 6 L 13 7 L 14 7 L 14 6 z M 21 19 L 21 20 L 22 20 L 22 19 z M 24 15 L 24 16 L 25 16 L 25 15 z M 13 24 L 13 25 L 14 25 L 14 24 z M 25 7 L 25 8 L 26 8 L 26 7 z M 16 16 L 16 17 L 17 17 L 17 16 z M 19 21 L 19 22 L 20 22 L 20 21 z M 9 4 L 9 5 L 10 5 L 10 4 z M 20 13 L 20 14 L 21 14 L 21 13 z M 1 9 L 1 10 L 2 10 L 2 9 z M 21 5 L 21 6 L 22 6 L 22 5 z M 13 1 L 13 2 L 14 2 L 14 1 z M 24 1 L 24 2 L 25 2 L 25 1 z M 13 10 L 13 11 L 14 11 L 14 10 z M 24 10 L 24 11 L 25 11 L 25 10 z M 23 23 L 23 24 L 24 24 L 24 23 z M 16 11 L 16 12 L 17 12 L 17 11 z M 19 7 L 19 8 L 20 8 L 20 7 z M 16 20 L 16 21 L 17 21 L 17 20 z M 8 16 L 8 17 L 9 17 L 9 16 z M 19 16 L 19 17 L 20 17 L 20 16 z M 19 25 L 19 26 L 20 26 L 20 25 z M 9 8 L 9 9 L 10 9 L 10 8 z M 1 4 L 1 5 L 2 5 L 2 4 z M 12 4 L 12 5 L 13 5 L 13 4 z M 20 17 L 20 18 L 21 18 L 21 17 z M 1 22 L 1 23 L 2 23 L 2 22 z M 13 5 L 13 6 L 14 6 L 14 5 z M 5 1 L 5 2 L 6 2 L 6 1 z M 4 14 L 4 15 L 5 15 L 5 14 z M 4 23 L 4 24 L 5 24 L 5 23 z M 15 23 L 15 24 L 16 24 L 16 23 z M 19 2 L 19 3 L 20 3 L 20 2 z M 16 15 L 16 16 L 17 16 L 17 15 z M 19 11 L 19 12 L 20 12 L 20 11 z M 9 3 L 9 4 L 10 4 L 10 3 z M 9 12 L 9 13 L 10 13 L 10 12 z M 20 12 L 20 13 L 21 13 L 21 12 z M 1 17 L 1 18 L 2 18 L 2 17 z M 11 21 L 11 22 L 12 22 L 12 21 z M 23 4 L 23 5 L 24 5 L 24 4 z M 15 9 L 15 10 L 16 10 L 16 9 z M 16 10 L 16 11 L 17 11 L 17 10 z M 19 6 L 19 7 L 20 7 L 20 6 z M 8 15 L 8 16 L 9 16 L 9 15 z M 19 15 L 19 16 L 20 16 L 20 15 z M 19 24 L 19 25 L 20 25 L 20 24 z M 20 7 L 20 8 L 21 8 L 21 7 z M 1 3 L 1 4 L 2 4 L 2 3 z M 12 3 L 12 4 L 13 4 L 13 3 z M 11 16 L 11 17 L 12 17 L 12 16 z M 11 25 L 11 26 L 12 26 L 12 25 z M 3 21 L 3 22 L 4 22 L 4 21 z M 4 4 L 4 5 L 5 5 L 5 4 z M 15 4 L 15 5 L 16 5 L 16 4 z M 23 17 L 23 18 L 24 18 L 24 17 z M 4 22 L 4 23 L 5 23 L 5 22 z M 15 22 L 15 23 L 16 23 L 16 22 z M 19 1 L 19 2 L 20 2 L 20 1 z M 16 14 L 16 15 L 17 15 L 17 14 z M 8 10 L 8 11 L 9 11 L 9 10 z M 19 19 L 19 20 L 20 20 L 20 19 z M 22 12 L 22 13 L 23 13 L 23 12 z M 7 23 L 7 24 L 8 24 L 8 23 z M 11 2 L 11 3 L 12 3 L 12 2 z M 3 7 L 3 8 L 4 8 L 4 7 z M 11 20 L 11 21 L 12 21 L 12 20 z M 3 16 L 3 17 L 4 17 L 4 16 z M 3 25 L 3 26 L 4 26 L 4 25 z M 23 3 L 23 4 L 24 4 L 24 3 z M 23 21 L 23 22 L 24 22 L 24 21 z M 4 17 L 4 18 L 5 18 L 5 17 z M 19 5 L 19 6 L 20 6 L 20 5 z M 7 9 L 7 10 L 8 10 L 8 9 z M 22 7 L 22 8 L 23 8 L 23 7 z M 22 16 L 22 17 L 23 17 L 23 16 z M 22 25 L 22 26 L 23 26 L 23 25 z M 11 15 L 11 16 L 12 16 L 12 15 z M 3 11 L 3 12 L 4 12 L 4 11 z M 11 24 L 11 25 L 12 25 L 12 24 z M 23 7 L 23 8 L 24 8 L 24 7 z M 4 3 L 4 4 L 5 4 L 5 3 z M 15 3 L 15 4 L 16 4 L 16 3 z M 15 12 L 15 13 L 16 13 L 16 12 z M 18 14 L 18 15 L 19 15 L 19 14 z M 7 4 L 7 5 L 8 5 L 8 4 z M 7 13 L 7 14 L 8 14 L 8 13 z M 22 11 L 22 12 L 23 12 L 23 11 z M 7 22 L 7 23 L 8 23 L 8 22 z M 11 1 L 11 2 L 12 2 L 12 1 z M 3 15 L 3 16 L 4 16 L 4 15 z M 25 21 L 25 22 L 26 22 L 26 21 z M 15 7 L 15 8 L 16 8 L 16 7 z M 18 9 L 18 10 L 19 10 L 19 9 z M 10 5 L 10 6 L 11 6 L 11 5 z M 10 14 L 10 15 L 11 15 L 11 14 z M 6 25 L 6 26 L 7 26 L 7 25 z M 7 17 L 7 18 L 8 18 L 8 17 z M 22 15 L 22 16 L 23 16 L 23 15 z M 11 5 L 11 6 L 12 6 L 12 5 z M 3 1 L 3 2 L 4 2 L 4 1 z M 3 19 L 3 20 L 4 20 L 4 19 z M 25 16 L 25 17 L 26 17 L 26 16 z M 14 25 L 14 26 L 15 26 L 15 25 z M 25 25 L 25 26 L 26 26 L 26 25 z M 17 21 L 17 22 L 18 22 L 18 21 z M 10 9 L 10 10 L 11 10 L 11 9 z M 18 22 L 18 23 L 19 23 L 19 22 z M 7 3 L 7 4 L 8 4 L 8 3 z M 22 1 L 22 2 L 23 2 L 23 1 z M 22 10 L 22 11 L 23 11 L 23 10 z M 7 21 L 7 22 L 8 22 L 8 21 z M 13 19 L 13 20 L 14 20 L 14 19 z M 3 5 L 3 6 L 4 6 L 4 5 z M 14 2 L 14 3 L 15 3 L 15 2 z M 25 2 L 25 3 L 26 3 L 26 2 z M 25 11 L 25 12 L 26 12 L 26 11 z M 17 7 L 17 8 L 18 8 L 18 7 z M 17 25 L 17 26 L 18 26 L 18 25 z M 18 17 L 18 18 L 19 18 L 19 17 z M 10 13 L 10 14 L 11 14 L 11 13 z M 10 22 L 10 23 L 11 23 L 11 22 z M 7 7 L 7 8 L 8 8 L 8 7 z M 22 5 L 22 6 L 23 6 L 23 5 z M 21 18 L 21 19 L 22 19 L 22 18 z M 13 14 L 13 15 L 14 15 L 14 14 z M 24 14 L 24 15 L 25 15 L 25 14 z M 5 19 L 5 20 L 6 20 L 6 19 z M 14 6 L 14 7 L 15 7 L 15 6 z M 25 6 L 25 7 L 26 7 L 26 6 z M 17 2 L 17 3 L 18 3 L 18 2 z M 2 13 L 2 14 L 3 14 L 3 13 z M 14 15 L 14 16 L 15 16 L 15 15 z M 25 15 L 25 16 L 26 16 L 26 15 z M 17 11 L 17 12 L 18 12 L 18 11 z M 14 24 L 14 25 L 15 25 L 15 24 z M 25 24 L 25 25 L 26 25 L 26 24 z M 17 20 L 17 21 L 18 21 L 18 20 z M 6 1 L 6 2 L 7 2 L 7 1 z M 18 12 L 18 13 L 19 13 L 19 12 z M 6 19 L 6 20 L 7 20 L 7 19 z M 10 17 L 10 18 L 11 18 L 11 17 z M 7 2 L 7 3 L 8 3 L 8 2 z M 20 21 L 20 22 L 21 22 L 21 21 z M 21 4 L 21 5 L 22 5 L 22 4 z M 24 9 L 24 10 L 25 10 L 25 9 z M 5 5 L 5 6 L 6 6 L 6 5 z M 5 14 L 5 15 L 6 15 L 6 14 z M 5 23 L 5 24 L 6 24 L 6 23 z M 25 1 L 25 2 L 26 2 L 26 1 z M 14 10 L 14 11 L 15 11 L 15 10 z M 25 19 L 25 20 L 26 20 L 26 19 z M 17 24 L 17 25 L 18 25 L 18 24 z M 10 3 L 10 4 L 11 4 L 11 3 z M 6 14 L 6 15 L 7 15 L 7 14 z M 9 7 L 9 8 L 10 8 L 10 7 z M 9 16 L 9 17 L 10 17 L 10 16 z M 20 16 L 20 17 L 21 17 L 21 16 z M 1 12 L 1 13 L 2 13 L 2 12 z M 9 25 L 9 26 L 10 26 L 10 25 z M 1 21 L 1 22 L 2 22 L 2 21 z M 12 21 L 12 22 L 13 22 L 13 21 z M 21 17 L 21 18 L 22 18 L 22 17 z M 13 22 L 13 23 L 14 23 L 14 22 z M 24 22 L 24 23 L 25 23 L 25 22 z M 14 5 L 14 6 L 15 6 L 15 5 z M 25 5 L 25 6 L 26 6 L 26 5 z M 2 12 L 2 13 L 3 13 L 3 12 z M 17 10 L 17 11 L 18 11 L 18 10 z M 16 23 L 16 24 L 17 24 L 17 23 z M 9 2 L 9 3 L 10 3 L 10 2 z M 20 11 L 20 12 L 21 12 L 21 11 z M 1 7 L 1 8 L 2 8 L 2 7 z M 1 16 L 1 17 L 2 17 L 2 16 z M 1 25 L 1 26 L 2 26 L 2 25 z M 12 25 L 12 26 L 13 26 L 13 25 z M 21 3 L 21 4 L 22 4 L 22 3 z M 5 4 L 5 5 L 6 5 L 6 4 z M 13 17 L 13 18 L 14 18 L 14 17 z M 5 22 L 5 23 L 6 23 L 6 22 z M 2 7 L 2 8 L 3 8 L 3 7 z M 17 5 L 17 6 L 18 6 L 18 5 z M 8 14 L 8 15 L 9 15 L 9 14 z M 1 2 L 1 3 L 2 3 L 2 2 z M 20 15 L 20 16 L 21 16 L 21 15 z M 20 24 L 20 25 L 21 25 L 21 24 z M 1 20 L 1 21 L 2 21 L 2 20 z M 12 20 L 12 21 L 13 21 L 13 20 z M 21 7 L 21 8 L 22 8 L 22 7 z M 23 16 L 23 17 L 24 17 L 24 16 z M 4 21 L 4 22 L 5 22 L 5 21 z M 16 13 L 16 14 L 17 14 L 17 13 z M 19 9 L 19 10 L 20 10 L 20 9 z" id="qr-path" fill="#000000" fill-opacity="1" fill-rule="nonzero" stroke="none"/></svg>