<?xml version="1.0" encoding="UTF-8"?><!DOCTYPE svg PUBLIC "-//W3C//DTD SVG 1.0//EN" "http://www.w3.org/TR/2001/REC-SVG-20010904/DTD/svg10.dtd" []><svg xmlns="http://www.w3.org/2000/svg" xmlns:xlink="http://www.w3.org/1999/xlink" height="140" stroke="#000" stroke-linecap="square" stroke-miterlimit="10" viewBox="0 0 140.39 140.39" width="140"><defs><clipPath id="a"><path d="M5 5V135.39H135.39V5Z"/></clipPath><clipPath clip-path="url(#a)" id="b"><path d="M5 135.39H135.39V5H5Z"/></clipPath></defs><g><g fill="#231F20" stroke="#231F20"><path clip-path="url(#b)" d="M51.12 113.62c0-.41.06-.76.18-1.04.09-.21.21-.39.37-.56s.33-.29.51-.37c.25-.11.53-.16.85-.16.58 0 1.05.19 1.4.56s.53.89.53 1.55-.17 1.17-.52 1.54-.81.56-1.39.56-1.06-.18-1.4-.55-.52-.88-.52-1.52Zm.82-.03c0 .46.1.81.31 1.05s.47.36.79.36.58-.12.78-.35.31-.59.31-1.06-.1-.81-.3-1.04-.46-.34-.79-.34-.6.12-.8.35-.3.58-.3 1.05Zm5.29 2.03v-4.06h1.68c.42 0 .73.04.92.11s.35.2.46.39.17.4.17.64c0 .3-.09.56-.26.76s-.44.32-.78.37c.17.1.32.22.43.34s.26.34.45.66l.48.79h-.96l-.58-.88c-.21-.32-.35-.51-.42-.6s-.16-.14-.24-.17-.22-.05-.4-.05h-.16v1.7Zm.8-2.35h.59c.38 0 .62-.02.72-.05s.17-.09.22-.17.08-.18.08-.31c0-.14-.04-.25-.11-.33s-.17-.14-.3-.16c-.06-.01-.26-.01-.58-.01h-.62Zm4.81 2.35v-4.06h.8v4.06Zm5.05-1.49v-.69h1.72v1.62c-.17.17-.41.31-.73.44s-.64.19-.96.19c-.41 0-.78-.09-1.08-.27s-.54-.43-.69-.77-.23-.69-.23-1.08c0-.42.09-.8.26-1.13s.43-.58.76-.76c.25-.14.57-.2.95-.2.49 0 .88.11 1.15.32s.45.5.53.88l-.79.15c-.06-.2-.16-.36-.32-.47s-.35-.17-.58-.17c-.35 0-.63.11-.83.34s-.31.56-.31 1.01c0 .48.1.84.31 1.09s.48.36.82.36c.17 0 .34-.03.5-.1s.31-.15.43-.24v-.52Zm4.08 1.49v-4.06h.8v4.06Zm3.21 0v-4.06h.78l1.62 2.71v-2.71h.74v4.06h-.8l-1.6-2.65v2.65Zm9.2 0h-.87l-.35-.92H81.6l-.33.92h-.85l1.54-4.06h.85Zm-1.47-1.61l-.55-1.51-.53 1.51Zm3.56 1.61V111.6h.8v3.35h1.99v.69Z" stroke="none"/><path clip-path="url(#b)" d="M36.43 102.01v-1.88h4.84v4.43c-.47.46-1.15.86-2.05 1.2s-1.8.52-2.71.52c-1.16 0-2.18-.24-3.05-.73s-1.52-1.19-1.95-2.1-.65-1.9-.65-2.96c0-1.16.24-2.19.73-3.09s1.2-1.59 2.14-2.07c.71-.37 1.6-.55 2.66-.55 1.38 0 2.46.29 3.24.87s1.28 1.38 1.5 2.4l-2.23.42c-.16-.55-.45-.98-.89-1.3s-.97-.47-1.62-.47c-.98 0-1.76.31-2.34.93s-.87 1.55-.87 2.77c0 1.32.29 2.31.88 2.97s1.36.99 2.31.99c.47 0 .94-.09 1.42-.28s.88-.41 1.22-.67v-1.41Zm16.95 4.09H50.94l-.97-2.53H45.52l-.92 2.53H42.22l4.34-11.13h2.38Zm-4.14-4.4l-1.53-4.13-1.5 4.13Zm5.31-6.73h2.25V101c0 .96.03 1.58.08 1.86.1.46.33.82.69 1.1s.86.41 1.48.41c.64 0 1.12-.13 1.44-.39s.52-.58.58-.96.1-1.01.1-1.89V94.97h2.25v5.85c0 1.34-.06 2.28-.18 2.83s-.34 1.02-.67 1.4-.76.68-1.31.91-1.26.34-2.14.34c-1.06 0-1.87-.12-2.42-.37s-.98-.56-1.3-.96-.53-.8-.63-1.23c-.15-.64-.22-1.58-.22-2.82Zm11.24 0h4.11c.93 0 1.63.07 2.12.21.65.19 1.21.53 1.68 1.03s.82 1.09 1.06 1.8.36 1.59.36 2.63c0 .91-.11 1.71-.34 2.37-.28.81-.67 1.46-1.19 1.96-.39.38-.91.68-1.58.89-.5.16-1.16.24-1.99.24H65.8Zm2.25 1.88v7.37h1.68c.63 0 1.08-.03 1.36-.11.36-.09.67-.24.91-.46s.44-.58.59-1.08.23-1.18.23-2.04-.08-1.52-.23-1.98-.37-.82-.64-1.08-.62-.43-1.04-.52c-.31-.07-.93-.11-1.85-.11Zm19.03 9.25H84.62l-.97-2.53H79.2l-.92 2.53H75.9l4.34-11.13h2.38Zm-4.14-4.4L81.4 97.56l-1.5 4.13Zm5.35 4.4V94.97h2.19l4.56 7.43V94.97h2.09V106.1H94.86l-4.49-7.26v7.26Zm21.24 0h-2.45l-.97-2.53h-4.45l-.92 2.53H98.36l4.34-11.13h2.38Zm-4.14-4.4l-1.53-4.13-1.5 4.13Z" stroke="none"/><path clip-path="url(#b)" d="M74.53 30.43c.04 12.74.08 25.47.13 38.21 3.92-3.18 8.8-5.79 8.15-10.44V31.7Zm-4.2-5.73V76.15c7.86-3.9 15.43-8.23 16.81-15.54V28.13Zm-17.7 3.44c.21 10.19.42 19.71.64 29.9.14 1.52.62 4.13 2.07 5.94 3.61 4.57 9.91 9.93 14.1 12.04.04-10.36.09-20.72.13-31.07l-10.32 1.4.25 4.46 5.73-.76-.27 18.09c-3.26-3.18-6.8-5.15-7.24-10.45l-.76-25.73 7.77-1.53L64.84 41l4.68.25.06-16.45Zm-1.15.19l-3.95 1.12c.17 10.53.34 21.28.51 31.8 1.17 7.02 12.13 16.35 22.16 21 7.06-3.44 21.97-9.78 22.67-22.02V29.53l-4.46-1.15-.13 30.95c-.13 3.65-2.08 7.32-4.73 9.62-4.3 3.78-8.68 5.8-13.17 8.6-5.45-2.7-10.73-6.56-15.85-12.99-1.55-2.72-2.06-3.82-2.26-8Z" fill="#D2AC67" fill-rule="evenodd" stroke="none"/><path clip-path="url(#b)" d="M5 5H135.39V135.39H5Z" fill="none" stroke-linecap="butt" stroke-miterlimit="2.61" stroke-width=".5"/><path clip-path="url(#b)" d="M110.2 90.18c1 0 1.82.81 1.82 1.82s-.81 1.82-1.82 1.82-1.82-.81-1.82-1.82.81-1.82 1.82-1.82Z" fill="none" stroke-linecap="butt" stroke-miterlimit="2.61" stroke-width=".5"/></g></g></svg>